<svg version="1.1" id="Layer_1" xmlns="http://www.w3.org/2000/svg" xmlns:xlink="http://www.w3.org/1999/xlink" x="0px" y="0px"
	 width="100%" viewBox="0 0 1024 544" enable-background="new 0 0 1024 544" xml:space="preserve">
<path fill="#000000" opacity="1.000000" stroke="none" 
	d="
M579.079834,262.136963 
	C578.392090,264.677826 577.096252,266.768219 577.989014,269.445129 
	C578.673584,269.325745 579.445679,269.425018 579.851379,269.085876 
	C588.824097,261.585388 599.610962,257.491089 610.097717,252.807098 
	C617.216980,249.627213 617.488220,248.301025 612.897278,242.022980 
	C607.104065,234.100845 607.827698,223.469467 614.422424,216.233109 
	C616.616516,213.825516 618.149170,214.938568 619.825134,216.559494 
	C626.806519,223.311432 629.229980,231.269196 626.133972,240.665665 
	C625.822266,241.611771 625.513611,242.559235 625.231323,243.514297 
	C625.194153,243.640213 625.323364,243.815292 625.534851,244.433289 
	C637.805847,235.684891 644.616211,224.305557 644.714783,209.147781 
	C644.729614,206.875977 643.343140,205.503372 642.215149,203.886627 
	C636.724365,196.016998 638.052856,185.774399 645.219910,179.418289 
	C647.187927,177.673035 648.555359,177.979996 650.300842,179.681442 
	C657.120544,186.329132 658.238159,195.554749 653.019348,203.807419 
	C652.111267,205.243454 651.246887,206.617035 651.323792,208.389709 
	C651.890625,221.448135 647.830566,232.926270 638.716553,243.321823 
	C642.370850,243.774796 645.189819,243.886551 648.107971,242.977646 
	C650.998230,242.077438 652.403687,240.471893 652.753235,237.322327 
	C653.762512,228.228806 662.562927,221.279114 671.752441,221.873779 
	C673.932800,222.014847 674.575073,223.162643 674.726501,225.061966 
	C675.450378,234.139236 669.562744,242.418884 660.588379,244.122864 
	C655.677979,245.055206 652.268372,249.065643 647.239258,249.520126 
	C647.672363,251.540222 649.214966,251.333191 650.386963,251.634842 
	C659.668762,254.023987 664.831543,261.202698 664.457703,270.772522 
	C664.333801,273.945251 663.085449,274.695526 660.128662,274.467529 
	C651.282410,273.785339 644.446594,267.709900 643.013855,258.958282 
	C641.989929,252.704147 634.810852,248.415176 629.447388,251.595703 
	C618.513550,258.079437 606.510559,262.312500 595.449280,268.454498 
	C588.920227,272.079926 582.925842,276.420105 579.304199,283.804077 
	C583.498596,284.292053 586.859436,283.177612 590.280640,282.722260 
	C602.163086,281.140533 613.884277,282.065979 625.427124,285.125610 
	C627.599548,285.701477 629.285828,285.114075 631.164368,284.383545 
	C640.182495,280.876709 650.109985,284.868591 654.368286,293.523407 
	C655.402405,295.625214 654.944702,296.834412 653.040283,298.042053 
	C644.141052,303.685272 634.240112,302.431519 627.618774,294.212524 
	C624.796631,290.709442 621.153870,290.461395 617.410156,290.001984 
	C604.926270,288.470123 592.507874,288.349060 580.337402,292.200500 
	C579.229919,292.550964 578.139587,292.965973 577.070923,293.420593 
	C576.851624,293.513855 576.764832,293.918640 576.453308,294.468872 
	C580.219788,295.486023 584.041870,294.551331 587.737061,295.586884 
	C596.596802,298.069672 604.093811,306.460419 605.083252,315.561768 
	C605.314514,317.689331 604.932983,319.082336 602.442932,319.394714 
	C591.599426,320.755219 579.694336,317.301880 575.724976,305.224243 
	C574.071655,300.193787 571.125549,299.801910 567.008911,300.624756 
	C557.155640,302.594238 550.473694,308.742249 545.419861,317.046112 
	C544.492249,318.570251 544.158569,320.502045 542.482788,321.570404 
	C539.702148,316.300629 541.522278,304.396088 545.559265,300.582153 
	C549.222839,297.120911 553.495544,294.518951 557.677185,291.793762 
	C565.764343,286.523346 570.387329,279.316254 570.710388,269.490112 
	C570.780396,267.359863 571.084534,265.094513 571.908142,263.158203 
	C574.566467,256.908600 577.071655,250.613297 579.507202,244.270767 
	C582.151123,237.385391 594.791077,232.087280 601.700745,234.036697 
	C604.302185,234.770660 604.455750,236.524170 604.189697,238.679001 
	C602.925354,248.917130 596.320618,255.859741 586.088501,257.087341 
	C582.720520,257.491425 580.382629,258.562683 579.079834,262.136963 
z"/>
<path fill="#000000" opacity="1.000000" stroke="none" 
	d="
M399.394348,227.908112 
	C400.854767,223.110748 403.214752,219.342819 406.490417,216.132919 
	C408.432373,214.229996 410.037506,214.296188 411.886658,216.496109 
	C418.876740,224.812256 419.105896,234.735916 412.333557,243.434692 
	C409.174438,247.492432 409.584534,249.557037 414.350372,251.871582 
	C419.290985,254.271027 424.357544,256.410034 429.350861,258.702484 
	C436.044647,261.775604 442.258698,265.606934 447.707825,270.730560 
	C449.885040,263.894165 446.698151,258.255066 440.239838,257.189514 
	C429.710968,255.452332 422.936707,248.101288 421.973511,237.625122 
	C421.716797,234.832932 423.114105,233.940689 425.403015,233.939056 
	C435.597229,233.931732 446.831604,237.450577 449.256561,251.223846 
	C449.455261,252.352402 449.560516,253.657486 450.196167,254.522827 
	C454.107544,259.847473 455.478760,265.980865 455.868469,272.352417 
	C456.397583,281.003754 461.317932,286.753265 467.935120,291.457214 
	C471.462128,293.964508 475.067200,296.366119 478.694244,298.727570 
	C483.286530,301.717407 485.535431,305.721222 484.995148,311.345428 
	C484.681366,314.611450 484.938110,317.932281 484.938110,321.610504 
	C482.059479,321.020844 481.909973,318.922485 481.104004,317.542267 
	C475.994049,308.791901 469.046326,302.565094 458.775452,300.619110 
	C454.622742,299.832306 452.070038,300.729340 450.467072,305.262482 
	C446.022949,317.830231 434.796112,320.509308 423.723724,319.340851 
	C420.804047,319.032745 420.908051,317.318695 421.366669,315.047272 
	C423.958008,302.212677 432.882935,294.883636 446.078705,294.863007 
	C447.192322,294.861267 448.398163,295.223145 449.764587,293.908691 
	C443.784851,290.844208 437.542084,289.646362 431.186768,289.328491 
	C422.879059,288.913025 414.563232,288.875916 406.279022,290.232208 
	C402.958466,290.775909 400.433563,291.975342 398.258362,294.610657 
	C391.888306,302.328064 381.268219,303.586121 373.160492,297.950623 
	C371.025879,296.466919 370.951447,295.076294 372.172516,292.946808 
	C377.315125,283.978180 386.507660,280.567352 396.094574,284.666290 
	C400.042023,286.354034 403.256836,284.170654 406.725555,283.646027 
	C420.002899,281.637787 433.193207,281.373566 446.911896,284.817108 
	C446.383636,281.406311 444.498810,279.564117 442.813110,277.685150 
	C437.354858,271.601105 430.430511,267.659088 423.047943,264.427612 
	C415.115479,260.955444 407.091980,257.657806 399.766083,252.970978 
	C396.042694,250.588882 392.304260,250.677124 388.315796,252.162811 
	C385.246857,253.305939 383.485352,254.904343 383.139679,258.562195 
	C382.252258,267.952423 375.618042,273.764557 366.163788,274.439178 
	C362.889465,274.672821 361.695526,273.627686 361.657684,270.331024 
	C361.552307,261.160950 366.770691,254.107498 375.797028,251.610641 
	C376.734192,251.351410 377.636444,250.965958 379.525665,250.293564 
	C374.049316,248.390869 370.176392,245.341263 365.275940,244.173752 
	C356.811035,242.157013 351.315582,234.269669 351.659088,225.569336 
	C351.770782,222.740707 352.930969,221.519073 355.676422,222.024002 
	C363.126129,223.394089 371.942688,225.887619 373.811005,237.022537 
	C374.834961,243.125168 378.548859,244.687286 385.904327,242.991470 
	C386.432526,241.420547 385.167664,240.531708 384.422241,239.550552 
	C377.918640,230.990158 375.273743,221.165283 374.962036,210.614807 
	C374.880951,207.869949 374.336884,205.531494 372.772369,203.156128 
	C367.814270,195.628540 369.412323,185.658997 376.157837,179.503860 
	C377.811981,177.994507 379.064636,177.848892 380.868134,179.359467 
	C387.353119,184.791046 389.840668,195.079437 384.986237,201.941422 
	C381.479401,206.898575 381.576202,211.627716 382.318848,216.964508 
	C383.790619,227.541443 392.040466,239.572174 401.429565,244.029297 
	C399.062927,238.761765 397.862366,233.672516 399.394348,227.908112 
z"/>
<path fill="#000000" opacity="1.000000" stroke="none" 
	d="
M501.685303,436.675903 
	C511.146912,428.845490 519.665649,420.670593 523.984436,409.167969 
	C528.709534,396.583435 529.621704,383.886658 524.350464,371.206329 
	C523.224487,368.497620 522.002258,365.703918 518.901367,363.895538 
	C517.579834,367.908691 518.926758,371.975250 517.973694,375.773529 
	C513.551636,375.102325 508.174591,369.737701 507.794037,365.701294 
	C507.669312,364.378632 507.555115,363.009277 507.753174,361.709625 
	C508.707581,355.446747 506.100281,351.326813 501.223389,347.303680 
	C492.939880,340.470276 488.294312,331.088257 487.833496,320.310242 
	C487.321503,308.335541 487.669739,296.323761 487.672028,284.328125 
	C487.672180,283.530884 487.914185,282.733673 488.050385,281.895172 
	C493.422333,283.916931 498.099945,290.353943 498.218079,295.972656 
	C498.330139,301.301849 498.483368,306.647675 498.201508,311.964111 
	C497.494202,325.304443 503.071869,335.394318 513.513611,343.278778 
	C517.491943,346.282776 521.156067,349.706573 524.925415,352.982758 
	C532.704834,359.744385 536.643799,368.481934 538.401184,378.496490 
	C541.630249,396.897278 550.244751,411.270813 568.807007,417.906616 
	C574.197693,419.833679 579.784058,420.603485 585.473267,420.618011 
	C599.634888,420.654175 613.796692,420.612122 627.958374,420.641602 
	C629.923828,420.645691 631.952209,420.241913 634.471069,421.472260 
	C632.563782,425.421387 630.537720,429.796539 625.804321,429.817780 
	C608.171387,429.896973 590.446960,431.559265 572.919250,428.838226 
	C557.902405,426.507019 546.030334,418.565033 537.626282,406.256531 
	C536.358337,406.048065 535.872864,406.577087 535.686462,407.201355 
	C530.900269,423.228149 520.548340,435.068115 507.544525,445.001831 
	C496.807373,453.204071 489.446045,463.529022 487.990295,477.392517 
	C487.735046,479.823059 486.792542,481.561340 483.783813,480.848175 
	C481.035919,480.196808 478.083801,480.197174 478.564178,475.869812 
	C480.150116,461.583557 486.759460,450.029938 497.253876,440.495209 
	C498.609436,439.263580 500.029602,438.103088 501.685303,436.675903 
z"/>
<path fill="#000000" opacity="1.000000" stroke="none" 
	d="
M606.029053,212.089615 
	C594.399536,221.136642 580.797241,223.804077 567.175476,226.280441 
	C553.175293,228.825592 540.957214,234.540771 530.930786,244.883987 
	C522.994019,253.071518 518.805786,262.818024 518.494446,274.020996 
	C518.359741,278.869232 516.015930,281.997162 513.259338,285.764862 
	C509.257324,281.960052 507.418884,278.126068 507.848938,272.771515 
	C510.300446,242.250870 535.882324,223.892471 556.944763,219.721420 
	C562.657715,218.590057 568.409729,217.650436 574.106689,216.446960 
	C576.364441,215.970016 578.702576,215.333984 580.684570,214.207916 
	C584.390198,212.102539 584.403259,209.594467 581.067139,206.990372 
	C573.321289,200.944122 570.749023,192.053452 573.939392,182.983902 
	C575.104492,179.671753 576.733154,179.004593 579.927734,180.639725 
	C589.709656,185.646622 594.176086,194.826218 591.787109,205.585159 
	C591.401550,207.321671 591.029480,209.061188 590.437500,211.780518 
	C599.015381,208.603134 604.954163,203.734772 608.730652,196.332886 
	C611.960815,190.001816 613.432190,183.177994 613.647095,176.109192 
	C613.788696,171.448471 613.555481,166.776581 613.687317,162.115265 
	C613.815979,157.561462 613.220093,153.545914 610.463074,149.470123 
	C605.740173,142.488129 608.370667,130.714539 614.921936,125.334190 
	C616.593201,123.961601 617.759216,124.258324 619.235718,125.575974 
	C626.479614,132.040543 628.210999,143.203720 622.614990,150.938385 
	C619.634094,155.058456 620.215942,159.159180 620.683289,163.768539 
	C623.357666,162.573929 623.027527,160.270172 623.527527,158.489716 
	C626.118835,149.262192 635.131104,143.233978 644.490479,144.497284 
	C646.275146,144.738190 647.066650,145.430466 647.269104,147.281311 
	C648.174805,155.561035 640.461365,165.264084 632.033691,166.297089 
	C625.817078,167.059067 622.392334,170.092560 621.115601,176.488251 
	C620.271179,180.718201 620.131165,185.093842 619.210327,189.302414 
	C617.279602,198.126633 613.367737,205.922760 606.029053,212.089615 
z"/>
<path fill="#000000" opacity="1.000000" stroke="none" 
	d="
M415.615173,207.324860 
	C408.993500,199.462616 406.410461,190.447281 405.702911,180.786545 
	C405.022125,171.490616 402.299988,168.173462 393.403015,166.232559 
	C385.552612,164.519958 379.111542,156.258377 378.973663,147.887222 
	C378.939209,145.795822 379.767090,144.949814 381.796082,144.637100 
	C390.746094,143.257599 400.206390,149.395767 402.483246,158.087814 
	C402.969177,159.942795 403.008942,162.104111 405.459045,163.494873 
	C405.979431,158.671188 406.222198,154.441620 403.314880,150.184021 
	C398.137909,142.602692 400.001404,131.778427 406.881226,125.652786 
	C408.638641,124.087990 409.862701,124.227776 411.547821,125.766655 
	C418.953583,132.529709 420.200134,143.421921 414.395691,151.572876 
	C413.726929,152.511948 412.687775,153.533966 412.667236,154.534897 
	C412.436646,165.768875 411.464294,177.058746 414.823303,188.182587 
	C415.376801,185.789719 415.851532,183.375305 416.498474,181.007965 
	C418.514801,173.629425 423.872131,169.830597 430.842133,167.819031 
	C434.249023,166.835770 435.735809,168.263474 436.075012,171.680618 
	C436.916626,180.159668 432.943085,186.793274 424.737640,190.254303 
	C418.337555,192.953842 417.340851,196.597504 421.633179,202.089249 
	C425.069244,206.485413 429.502045,209.440186 435.462433,211.424881 
	C435.007111,208.755966 434.737274,206.819916 434.340942,204.910095 
	C432.160614,194.402847 437.202789,184.596405 446.826721,180.273636 
	C449.646362,179.007141 451.219116,179.615189 452.122986,182.478668 
	C454.744720,190.784195 454.120331,200.707565 445.687531,206.732178 
	C442.167206,209.247177 442.165497,211.283646 445.555237,214.063782 
	C448.674225,216.621826 452.589050,216.892059 456.363129,217.477112 
	C465.248688,218.854538 474.083466,220.395065 482.360992,224.159149 
	C489.413208,227.366043 489.833862,228.622543 485.672302,236.286316 
	C476.292358,230.306778 465.788635,227.533310 454.901154,225.815842 
	C448.659332,224.831238 442.478394,223.420731 436.535034,221.161224 
	C428.641327,218.160202 421.492645,214.029099 415.615173,207.324860 
z"/>
<path fill="#000000" opacity="1.000000" stroke="none" 
	d="
M498.860352,425.049927 
	C494.455994,418.881409 492.365295,412.011902 489.759644,404.593903 
	C485.715576,409.337189 482.533997,413.778534 478.332764,417.309784 
	C467.152344,426.707275 453.913361,429.823364 439.776520,430.044342 
	C427.784485,430.231812 415.787292,430.107574 403.792419,430.084991 
	C397.338867,430.072815 394.935211,428.318817 391.963135,421.554871 
	C393.626373,419.989807 395.715027,420.672668 397.594879,420.664795 
	C411.755249,420.605499 425.915985,420.646545 440.076630,420.633331 
	C467.639954,420.607635 486.905701,401.739502 487.628235,374.118225 
	C487.665619,372.688171 487.244873,371.127106 488.909851,369.226898 
	C492.480713,375.638916 499.605438,379.570160 498.376617,388.453644 
	C497.677002,393.511597 498.799652,398.647461 500.786377,404.134125 
	C504.471649,399.208954 505.960602,394.079193 506.639954,388.656006 
	C507.024139,385.589172 505.045868,383.603271 502.935883,381.975250 
	C487.774384,370.277222 486.623352,353.947418 487.865570,336.808258 
	C487.883026,336.567413 488.263550,336.352844 489.072144,335.483917 
	C491.701752,342.136749 498.522583,345.609314 498.736542,353.942169 
	C498.938080,361.789703 503.655090,368.315826 509.750336,373.430634 
	C515.309998,378.096039 520.052673,383.336609 522.843689,390.172607 
	C526.151367,398.274017 523.479614,405.306732 519.509521,412.448395 
	C515.495667,410.841705 516.137146,406.521423 513.530945,404.122345 
	C510.526581,407.428864 509.107117,411.559113 506.831024,415.136719 
	C505.472382,417.272186 507.025940,419.102844 508.320923,420.498016 
	C511.840942,424.290253 510.173920,426.929810 506.819427,429.506287 
	C502.654175,432.705444 501.937439,428.249390 499.995667,426.518921 
	C499.628571,426.191711 499.372192,425.740265 498.860352,425.049927 
z"/>
<path fill="#000000" opacity="1.000000" stroke="none" 
	d="
M506.011658,142.989273 
	C508.487488,138.483414 508.406403,133.570984 507.392609,128.869415 
	C506.226929,123.463455 503.504761,119.441727 497.124969,118.221237 
	C487.463898,116.373016 481.264465,107.984787 481.573761,98.926064 
	C481.678192,95.868713 482.851532,94.846970 485.889343,95.130997 
	C496.877716,96.158356 502.818298,101.098595 505.417480,111.688187 
	C505.821503,113.334274 506.398895,114.795807 508.368774,115.865997 
	C509.408203,111.773155 509.116638,108.323975 507.091003,104.773651 
	C501.892670,95.662621 503.039368,87.336594 509.998596,79.513443 
	C512.170410,77.071960 513.822510,76.963326 516.111389,79.361534 
	C523.004150,86.583496 524.220154,95.963158 519.171692,104.593742 
	C516.807739,108.634972 516.662231,109.716408 517.774597,115.828880 
	C520.177490,114.734825 520.363342,112.620865 520.815247,110.562836 
	C523.253052,99.461136 532.482849,95.767204 541.509399,95.071396 
	C544.181641,94.865402 544.847961,96.625351 544.852417,98.942253 
	C544.869568,107.810959 539.366272,116.095108 530.492859,117.617432 
	C521.196716,119.212280 517.826965,125.393372 517.740906,132.922836 
	C517.515869,152.608536 506.363861,165.204758 492.057617,176.270767 
	C485.482391,181.356781 478.773102,186.332214 473.618073,193.002914 
	C469.170624,198.758011 465.934662,205.126450 464.649628,212.292267 
	C463.876129,216.605637 461.217224,215.920639 458.317047,215.431610 
	C455.222443,214.909805 453.734467,213.808151 454.509857,210.094498 
	C456.836853,198.948914 462.269073,189.706421 470.229431,181.697281 
	C477.658478,174.222702 486.437378,168.389786 494.262665,161.408417 
	C499.707153,156.551086 504.059448,150.994522 505.929474,143.377563 
	C505.998627,143.002533 506.011658,142.989273 506.011658,142.989273 
z"/>
<path fill="#000000" opacity="1.000000" stroke="none" 
	d="
M524.631714,196.896576 
	C520.250244,199.973206 518.610657,196.210892 516.793762,194.008575 
	C514.851929,191.654800 517.552979,190.542114 518.912964,189.331512 
	C528.354126,180.927185 538.614380,173.423538 547.217041,164.101898 
	C557.463257,152.999344 564.191711,140.349411 563.818909,124.688034 
	C563.747009,121.667625 562.901672,119.376389 560.812012,117.130852 
	C553.975220,109.784218 553.305054,100.995148 558.326477,92.303749 
	C560.163330,89.124519 561.850830,89.107124 564.609863,91.226074 
	C572.254517,97.097015 574.741272,104.902756 571.601868,114.194527 
	C569.935852,119.125420 569.862427,128.432205 571.471985,132.667236 
	C573.232361,132.455078 573.682617,130.780060 574.635864,129.727127 
	C580.280212,123.492844 589.007263,121.487450 596.957214,124.483932 
	C600.127930,125.679047 601.010742,127.259911 599.546814,130.529648 
	C595.691040,139.141937 586.595520,144.351318 577.165405,142.555038 
	C572.935486,141.749298 569.689209,142.551529 568.087524,146.522003 
	C559.364441,168.145920 541.844238,182.133926 524.631714,196.896576 
z"/>
<path fill="#000000" opacity="1.000000" stroke="none" 
	d="
M518.302673,327.993134 
	C518.061462,333.070160 518.809814,337.707306 517.820679,342.302185 
	C511.329071,340.723053 507.851624,336.461761 507.702850,330.477020 
	C507.492523,322.016876 508.389191,313.525818 506.322052,305.125122 
	C503.231201,292.563904 495.330322,283.300079 486.260315,274.740631 
	C477.693054,266.655640 467.650208,260.090973 461.156494,249.865768 
	C457.703705,244.428955 455.588165,238.550400 454.105835,232.363754 
	C453.471924,229.718109 454.390381,228.535507 457.141205,228.866211 
	C461.275085,229.363205 464.336670,230.436417 465.748627,235.382645 
	C468.707306,245.747299 476.432098,252.809265 484.508789,259.409943 
	C490.569794,264.363312 496.589386,269.350281 501.834686,275.214386 
	C513.255005,287.982056 518.600403,302.939331 518.290771,320.000824 
	C518.245422,322.498077 518.296082,324.997040 518.302673,327.993134 
z"/>
<path fill="#000000" opacity="1.000000" stroke="none" 
	d="
M455.273041,98.577652 
	C457.960785,94.524696 460.616882,89.142822 465.115540,90.025986 
	C469.633636,90.912949 469.878906,97.042824 470.899017,101.316536 
	C472.152069,106.566078 470.699646,111.699043 466.928192,115.131683 
	C461.129242,120.409676 461.966766,126.560356 462.865540,133.014114 
	C464.559082,145.175171 470.405670,155.212662 478.656189,164.051971 
	C480.333344,165.848801 483.280945,167.437332 479.946289,170.498367 
	C476.879639,173.313385 474.916412,172.183960 472.581329,169.467987 
	C467.221985,163.234451 462.918182,156.396103 459.423126,148.968781 
	C456.247314,142.219742 455.239990,141.824020 447.835938,142.891296 
	C438.985046,144.167130 428.811401,137.749741 426.182129,129.357285 
	C425.240540,126.351883 427.205078,125.526520 429.275482,124.693176 
	C438.253967,121.079338 447.513763,123.902611 453.042114,131.915649 
	C453.673096,132.830185 454.302124,133.746094 455.455841,134.537201 
	C454.577850,127.294563 458.218933,120.097214 454.253937,112.855553 
	C451.834503,108.436691 452.822449,103.449211 455.273041,98.577652 
z"/>
<path fill="#000000" opacity="1.000000" stroke="none" 
	d="
M477.682434,447.682068 
	C472.673126,455.328949 469.506775,463.303223 468.173737,472.001770 
	C467.866638,474.005890 467.463165,476.379028 464.548004,475.322815 
	C462.161621,474.458160 458.452759,474.733276 459.255035,470.277527 
	C460.500549,463.360291 462.394043,456.670868 465.620087,450.392487 
	C466.595459,448.494202 467.468903,446.543549 468.610138,444.153809 
	C463.813477,443.951141 460.011230,445.847992 456.042542,446.684113 
	C444.545044,449.106384 432.928406,449.455139 421.275055,449.033539 
	C415.948334,448.840881 413.225220,444.623230 409.864594,441.198273 
	C412.011047,439.099426 414.104675,439.839630 415.991302,439.775330 
	C428.929443,439.334106 441.929047,440.799835 454.775726,437.729126 
	C467.189301,434.761902 478.292084,429.517426 487.651520,420.756653 
	C488.604584,419.864532 489.408173,418.718903 490.872498,418.588470 
	C497.000610,424.371674 497.097931,426.097260 491.427948,431.425385 
	C486.308319,436.236359 481.725647,441.490356 477.682434,447.682068 
z"/>
<path fill="#000000" opacity="1.000000" stroke="none" 
	d="
M545.575928,443.407898 
	C542.284790,438.738342 538.527588,434.966614 534.676941,431.283447 
	C528.931458,425.787872 528.965759,424.525696 535.688660,417.763641 
	C557.500183,441.674286 586.704834,440.435669 615.843384,440.311401 
	C612.743958,445.222351 609.572937,448.999298 603.525269,449.141052 
	C588.172791,449.500916 572.987915,448.632660 557.803467,443.259796 
	C558.080200,446.753693 560.040710,448.733368 561.026245,451.075623 
	C563.483582,456.915741 565.451782,462.856323 566.809204,469.076263 
	C567.829590,473.751923 564.872681,474.552612 561.830994,475.468323 
	C558.054504,476.605194 558.239807,473.346619 557.892822,471.307770 
	C556.151489,461.075989 551.875916,451.999146 545.575928,443.407898 
z"/>
<path fill="#000000" opacity="1.000000" stroke="none" 
	d="
M541.339905,273.339630 
	C531.849976,281.708771 524.228394,290.965973 520.897644,303.470123 
	C514.517639,295.341522 514.202332,288.642365 519.601257,281.106964 
	C525.271545,273.192719 532.354431,266.662109 539.944702,260.640564 
	C549.428711,253.116638 558.191406,245.055908 561.472778,232.707214 
	C562.123047,230.259888 568.819397,227.563904 571.180054,228.531769 
	C573.726257,229.575714 572.601685,231.602417 572.214661,233.241623 
	C569.188843,246.058899 562.069214,256.234589 551.929749,264.452209 
	C548.441040,267.279694 545.036072,270.210541 541.339905,273.339630 
z"/>
<path fill="#000000" opacity="1.000000" stroke="none" 
	d="
M527.821350,350.391602 
	C527.795288,332.500793 527.881897,315.048035 527.749390,297.596924 
	C527.693787,290.269653 532.212341,285.929749 538.032959,281.723358 
	C538.032959,309.323212 538.032959,336.923065 538.032959,364.522919 
	C534.507751,359.931458 530.186707,356.098572 527.821350,350.391602 
z"/>
<path fill="#000000" opacity="1.000000" stroke="none" 
	d="
M502.642639,185.332504 
	C513.737854,194.202255 524.191711,203.170822 529.999878,216.238129 
	C530.471497,217.299255 530.974060,218.348190 531.404114,219.425995 
	C534.421570,226.988327 533.666748,228.667221 525.741089,232.103363 
	C524.788818,231.824905 524.576538,230.971863 524.369507,230.196915 
	C520.460632,215.567505 510.892303,204.938934 499.815430,195.362732 
	C496.549286,192.539032 493.301147,189.692047 490.118896,186.774887 
	C488.697998,185.472351 486.589203,183.972687 488.950165,181.937119 
	C490.947327,180.215195 492.977692,177.453125 496.202850,180.051956 
	C498.271790,181.719116 500.309387,183.425186 502.642639,185.332504 
z"/>
<path fill="#000000" opacity="1.000000" stroke="none" 
	d="
M498.060547,264.023895 
	C494.574158,265.441528 487.906799,260.625092 487.787323,256.567719 
	C487.248688,238.272690 491.214966,221.194809 502.126099,206.124130 
	C503.412537,204.347305 504.969543,202.901123 507.024231,204.835938 
	C509.269012,206.949722 512.136230,209.089233 509.716217,212.847733 
	C505.620270,219.209122 502.939911,226.158218 500.838318,233.397598 
	C497.957947,243.319565 498.347443,253.494644 498.060547,264.023895 
z"/>
<path fill="#000000" opacity="1.000000" stroke="none" 
	d="
M547.878296,476.092926 
	C547.958252,481.195740 544.017700,480.315704 541.413513,480.816315 
	C538.380737,481.399323 538.635498,478.596985 538.378113,476.770447 
	C536.506409,463.486786 529.396851,453.454376 519.163940,445.264557 
	C517.412720,443.862976 514.164246,442.451965 517.308289,439.525208 
	C519.707031,437.292267 521.695007,434.260376 525.946350,437.859161 
	C537.835876,447.923798 545.900513,459.965057 547.878296,476.092926 
z"/>
<path fill="#000000" opacity="1.000000" stroke="none" 
	d="
M561.865295,188.199829 
	C566.747742,194.910248 569.833984,202.005493 571.629211,209.750824 
	C572.338440,212.810501 571.939575,214.725662 568.595032,215.103561 
	C565.865295,215.411957 562.468811,217.394333 561.480225,212.546860 
	C559.377258,202.234482 554.008911,193.745712 546.565491,186.497482 
	C544.273743,184.265808 544.867920,182.499847 546.907837,180.630753 
	C548.854858,178.846725 550.551575,176.392120 553.585388,179.062653 
	C556.604309,181.720078 559.238342,184.708603 561.865295,188.199829 
z"/>
<path fill="#000000" opacity="1.000000" stroke="none" 
	d="
M484.564758,218.659103 
	C477.003754,212.999710 474.306610,205.501129 476.653290,198.136459 
	C477.575623,195.241882 478.956451,194.606781 481.786407,195.593811 
	C489.483429,198.278336 494.490753,205.075165 494.249207,212.894455 
	C494.002594,220.877441 492.460236,221.857880 484.564758,218.659103 
z"/>
<path fill="#000000" opacity="1.000000" stroke="none" 
	d="
M531.763184,212.996994 
	C531.949707,204.714157 535.860291,199.450729 543.001404,196.464066 
	C547.842957,194.439194 548.711365,194.894684 549.772949,199.907059 
	C551.421265,207.690613 547.653015,215.539780 540.785522,218.627533 
	C534.390015,221.503067 532.750793,220.557648 531.763184,212.996994 
z"/>
<path fill="#000000" opacity="1.000000" stroke="none" 
	d="
M603.578857,190.634918 
	C593.762451,186.686157 590.274902,181.202896 590.608643,171.432220 
	C590.727051,167.964569 592.026917,167.105637 595.220093,167.806686 
	C604.100708,169.756378 609.963562,176.696716 610.283325,185.838898 
	C610.500488,192.048828 609.748840,192.634079 603.578857,190.634918 
z"/>
<path fill="#000000" opacity="1.000000" stroke="none" 
	d="
M547.392029,122.267387 
	C553.779541,122.883812 556.630249,127.347069 558.511230,132.342987 
	C560.427368,137.432495 559.280151,142.494553 556.449524,147.055374 
	C555.114990,149.205673 553.360840,148.198914 551.729614,147.166824 
	C543.074219,141.690414 541.219666,131.905701 547.392029,122.267387 
z"/>
<path fill="#000000" opacity="1.000000" stroke="none" 
	d="
M562.816040,166.445145 
	C560.516907,164.809296 561.130859,163.121948 561.982361,161.390503 
	C565.830383,153.565613 578.076111,150.151688 585.413879,154.773575 
	C587.877075,156.325089 587.041809,157.968994 585.999207,159.819473 
	C581.442505,167.906815 572.758484,170.511627 562.816040,166.445145 
z"/>
<path fill="#000000" opacity="1.000000" stroke="none" 
	d="
M471.607788,125.728577 
	C473.763306,123.972786 475.278992,121.063568 477.992828,121.889259 
	C481.010376,122.807343 481.529327,126.193375 482.044678,128.858765 
	C483.367706,135.701523 481.922272,141.697006 475.812958,145.993988 
	C471.550751,148.991837 470.161011,148.606613 468.251007,143.619720 
	C465.755554,137.104431 466.840363,131.253036 471.607788,125.728577 
z"/>
<path fill="#000000" opacity="1.000000" stroke="none" 
	d="
M460.214111,167.808899 
	C449.713379,169.186478 443.625641,166.466019 440.003357,159.180710 
	C439.093597,157.350891 438.624664,155.944717 440.999786,154.708099 
	C448.225220,150.946198 457.538666,152.818451 462.763824,159.265350 
	C466.240021,163.554367 465.775604,165.372879 460.214111,167.808899 
z"/>
<path fill="#000000" opacity="1.000000" stroke="none" 
	d="
M518.854126,162.072113 
	C514.261597,155.904053 514.406921,152.843994 519.366089,146.467560 
	C520.747192,146.545944 521.367310,147.627197 521.858276,148.625916 
	C525.173767,155.370834 530.586792,160.251709 536.187744,164.983261 
	C537.945190,166.467850 540.424927,167.983887 537.677429,170.491653 
	C535.522522,172.458603 533.557983,175.770126 529.769958,172.737686 
	C525.865540,169.611954 522.235718,166.233170 518.854126,162.072113 
z"/>
<path fill="#000000" opacity="1.000000" stroke="none" 
	d="
M505.993347,143.011536 
	C500.601471,145.771027 496.260010,143.041229 492.478149,139.846771 
	C488.378540,136.383911 486.633759,131.483963 486.913940,126.078514 
	C487.048309,123.486252 489.209839,123.693825 491.036377,123.735680 
	C500.432098,123.950943 506.456604,131.315750 506.057068,142.558640 
	C506.011658,142.989273 505.998627,143.002533 505.993347,143.011536 
z"/>
<path fill="#000000" opacity="1.000000" stroke="none" 
	d="
M636.562378,274.378296 
	C632.730408,280.532837 627.347229,282.687439 620.685425,282.163635 
	C618.091553,281.959686 616.751953,280.964325 617.371094,277.999542 
	C618.732239,271.481934 624.046021,266.313629 630.645691,265.592194 
	C633.240234,265.308563 636.402100,264.586731 638.158386,266.778473 
	C640.085266,269.183136 637.845459,271.720459 636.562378,274.378296 
z"/>
<path fill="#000000" opacity="1.000000" stroke="none" 
	d="
M398.920441,281.603027 
	C393.188812,280.009308 390.345734,276.046997 388.445618,271.235748 
	C386.814514,267.105560 388.010162,265.421875 392.549683,265.179810 
	C399.586731,264.804565 406.223663,269.500610 408.434326,276.419250 
	C409.888489,280.970276 409.098938,282.113739 404.256073,282.171234 
	C402.611389,282.190765 400.962830,281.886078 398.920441,281.603027 
z"/>
<path fill="#000000" opacity="1.000000" stroke="none" 
	d="
M629.988403,218.097244 
	C625.299805,213.969849 624.244507,208.948578 624.830017,203.380295 
	C625.106873,200.747162 626.091309,199.528122 629.095093,200.462021 
	C635.870361,202.568420 640.696533,208.486694 640.968689,215.500092 
	C641.195068,221.335861 639.562927,222.548935 634.238770,220.396240 
	C632.865784,219.841125 631.599060,219.023056 629.988403,218.097244 
z"/>
<path fill="#000000" opacity="1.000000" stroke="none" 
	d="
M398.332275,216.178802 
	C397.160461,217.176346 396.329346,218.048996 395.316467,218.564713 
	C392.703949,219.894958 389.734833,222.506699 387.090698,220.671844 
	C384.276337,218.718872 385.491486,214.820007 385.954254,211.830109 
	C386.821594,206.226166 392.133759,201.402359 397.751495,200.284271 
	C400.248352,199.787308 401.132080,200.840286 401.259674,203.081070 
	C401.516449,207.590378 401.752411,212.094742 398.332275,216.178802 
z"/>
<path fill="#000000" opacity="1.000000" stroke="none" 
	d="
M616.855042,293.889893 
	C623.166931,296.631104 625.081360,301.808746 625.788452,307.670441 
	C626.136597,310.556122 625.061584,312.028015 621.760803,311.534332 
	C615.807190,310.643951 610.888062,306.564606 609.333130,300.742035 
	C608.644287,298.162842 607.693542,295.090546 609.587280,293.106323 
	C611.517822,291.083435 614.209778,292.992798 616.855042,293.889893 
z"/>
<path fill="#000000" opacity="1.000000" stroke="none" 
	d="
M416.312744,302.759949 
	C413.714722,307.911621 409.794098,310.609558 404.506897,311.373047 
	C402.094208,311.721405 400.845306,310.953918 400.697784,308.245453 
	C400.200043,299.108276 407.352325,292.061890 416.853333,292.812408 
	C417.729828,296.003204 417.730103,299.201233 416.312744,302.759949 
z"/>
<path fill="#000000" opacity="1.000000" stroke="none" 
	d="
M581.710938,104.403519 
	C585.240356,102.980820 589.285156,100.695831 591.583374,103.753426 
	C593.668213,106.527252 591.147644,110.368988 589.378906,113.366837 
	C587.026855,117.353203 583.229553,119.281677 578.843689,120.120277 
	C575.565186,120.747147 573.809387,119.849091 574.337097,115.926781 
	C575.001282,110.990059 577.044800,107.137688 581.710938,104.403519 
z"/>
<path fill="#000000" opacity="1.000000" stroke="none" 
	d="
M452.139954,117.968117 
	C451.425476,120.572495 449.670380,120.303024 448.026276,120.139717 
	C440.958801,119.437805 434.824921,113.145561 434.044373,106.071747 
	C433.732025,103.241272 435.141113,102.700134 437.490997,102.612770 
	C445.279877,102.323174 451.028137,108.116158 452.139954,117.968117 
z"/>
<path fill="#000000" opacity="1.000000" stroke="none" 
	d="
M522.536987,138.587753 
	C519.688171,136.439957 520.947266,134.172668 521.846558,132.102997 
	C523.923340,127.323364 527.660339,124.501472 532.773682,123.561287 
	C534.875061,123.174927 537.339050,122.390839 538.752319,124.544189 
	C540.026794,126.486237 539.122742,128.747421 538.184998,130.739151 
	C535.550659,136.334732 529.891296,139.286911 522.536987,138.587753 
z"/>
<path fill="#000000" opacity="1.000000" stroke="none" 
	d="
M667.925415,200.641968 
	C670.461670,200.724930 671.232971,201.799332 671.133179,203.878525 
	C670.817627,210.455246 664.548523,216.239746 657.794861,216.314514 
	C654.431519,216.351776 653.326660,214.916992 653.814270,211.729706 
	C654.893616,204.674820 659.306885,201.053146 667.925415,200.641968 
z"/>
<path fill="#000000" opacity="1.000000" stroke="none" 
	d="
M601.560913,163.723816 
	C596.697021,160.848511 594.720459,156.649124 594.233765,151.604401 
	C594.006042,149.244110 594.704651,147.785309 597.541260,148.033432 
	C603.643188,148.567154 609.588562,154.133759 610.295837,160.167419 
	C610.924988,165.535614 609.727295,166.575150 604.658569,165.010178 
	C603.712646,164.718109 602.809998,164.285812 601.560913,163.723816 
z"/>
<path fill="#000000" opacity="1.000000" stroke="none" 
	d="
M362.700317,214.670624 
	C358.008484,212.416183 356.292084,208.612473 355.324280,204.186935 
	C354.706085,201.359833 355.993958,200.675812 358.447571,200.524673 
	C365.109680,200.114334 370.616150,204.075836 372.119995,210.505219 
	C373.283417,215.479233 371.838928,217.044968 366.836212,216.097412 
	C365.541107,215.852112 364.307983,215.279404 362.700317,214.670624 
z"/>
<path fill="#000000" opacity="1.000000" stroke="none" 
	d="
M416.025116,160.439941 
	C417.498230,153.493088 421.563660,149.609909 428.001251,148.103043 
	C431.074188,147.383789 432.341766,148.610764 432.104797,151.750320 
	C431.611542,158.284973 427.262451,163.528320 421.091705,164.945892 
	C417.604279,165.747040 415.462860,164.972900 416.025116,160.439941 
z"/>
<path fill="#000000" opacity="1.000000" stroke="none" 
	d="
M535.139221,244.062744 
	C536.723083,243.182358 537.563965,243.444275 538.111450,244.884491 
	C541.349731,253.403275 537.597961,262.092865 528.931152,266.046478 
	C525.517578,258.347260 527.587708,250.715530 535.139221,244.062744 
z"/>
<path fill="#000000" opacity="1.000000" stroke="none" 
	d="
M394.515625,171.412598 
	C395.381592,171.592880 395.916168,171.605637 396.350433,171.820862 
	C399.690094,173.476044 403.125336,175.359558 402.769379,179.694046 
	C402.561554,182.225113 395.908905,183.745972 392.007782,182.183578 
	C388.780640,180.891113 384.342560,179.132126 384.988739,175.469452 
	C385.687805,171.506760 390.419617,171.395676 394.515625,171.412598 
z"/>
<path fill="#000000" opacity="1.000000" stroke="none" 
	d="
M626.417725,181.882355 
	C622.682007,180.303421 622.568848,178.301239 624.791870,175.610123 
	C628.432068,171.203384 634.236206,170.048019 639.049500,172.779724 
	C642.005066,174.457153 642.228333,176.384552 639.855530,178.632339 
	C636.139648,182.152359 631.926331,183.974213 626.417725,181.882355 
z"/>
</svg>